# xmcd CD database file
#
# Track frame offsets:
#	150
#	17335
#	33585
#	53097
#	69941
#	87763
#	102779
#	123828
#	140633
#	160544
#	177120
#	193412
#	213223
#
# Disc length: 3117 seconds
#
# Revision: 0
# Processed by: cddbd v1.5.2PL0 Copyright (c) Steve Scherf et al.
# Submitted via: CDex 2.18
#
DISCID=a20c2b0d
DTITLE=LeAnn Rimes - I need you
DYEAR=2001
DGENRE=Country
TTITLE0=I need you
TTITLE1=Can't fight the moonlight
TTITLE2=Written in the stars (with Elton John)
TTITLE3=You are
TTITLE4=Soon
TTITLE5=But I do love you (Coyote Ugly)
TTITLE6=One of these days
TTITLE7=Love must be telling me something
TTITLE8=I believe in you
TTITLE9=Together forever always
TTITLE10=Can't fight the moonlight (Graham Stack Radio Edit)
TTITLE11=I need you (Dave Aude)
TTITLE12=Soon (Graham Stack Radio Edit)
EXTD=YEAR: 2001
EXTT0=
EXTT1=
EXTT2=
EXTT3=
EXTT4=
EXTT5=
EXTT6=
EXTT7=
EXTT8=
EXTT9=
EXTT10=
EXTT11=
EXTT12=
PLAYORDER=
